# Blender v2.74 (sub 0) OBJ File: ''
# www.blender.org
mtllib skydome2.mtl
o Kugel_Untitled
v 0.000000 0.000875 -0.000000
v 0.000000 5.341550 0.000001
v 1.655500 0.028268 -0.000000
v 1.433705 0.028268 -0.827750
v 0.827750 0.028268 -1.433705
v 0.000000 0.028268 -1.655500
v -0.827750 0.028268 -1.433705
v -1.433705 0.028268 -0.827750
v -1.655500 0.028268 -0.000000
v -1.433705 0.028268 0.827750
v -0.827750 0.028267 1.433705
v -0.000000 0.028267 1.655500
v 0.827750 0.028267 1.433705
v 1.433705 0.028268 0.827750
v 2.867410 0.698788 -0.000000
v 2.483250 0.698788 -1.433705
v 1.433705 0.698788 -2.483250
v 0.000000 0.698788 -2.867410
v -1.433705 0.698788 -2.483250
v -2.483250 0.698788 -1.433705
v -2.867410 0.698788 -0.000000
v -2.483250 0.698787 1.433705
v -1.433705 0.698787 2.483250
v -0.000000 0.698787 2.867410
v 1.433705 0.698787 2.483250
v 2.483250 0.698787 1.433705
v 3.311000 2.122263 0.000000
v 2.867410 2.122263 -1.655500
v 1.655500 2.122263 -2.867410
v 0.000000 2.122264 -3.311000
v -1.655500 2.122263 -2.867410
v -2.867410 2.122263 -1.655500
v -3.311000 2.122263 0.000000
v -2.867410 2.122263 1.655500
v -1.655500 2.122262 2.867410
v -0.000000 2.122262 3.311000
v 1.655500 2.122262 2.867410
v 2.867410 2.122263 1.655500
v 2.867410 3.785814 0.000000
v 2.483250 3.785814 -1.433704
v 1.433705 3.785814 -2.483249
v 0.000000 3.785814 -2.867409
v -1.433705 3.785814 -2.483249
v -2.483250 3.785814 -1.433704
v -2.867410 3.785814 0.000000
v -2.483250 3.785814 1.433705
v -1.433705 3.785813 2.483250
v -0.000000 3.785813 2.867410
v 1.433705 3.785813 2.483250
v 2.483250 3.785814 1.433705
v 1.062831 5.056766 0.000001
v 0.920439 5.056766 -0.531415
v 0.531415 5.056766 -0.920438
v 0.000000 5.056766 -1.062830
v -0.531415 5.056766 -0.920438
v -0.920439 5.056766 -0.531415
v -1.062831 5.056766 0.000001
v -0.920439 5.056766 0.531416
v -0.531415 5.056766 0.920439
v -0.000000 5.056766 1.062832
v 0.531415 5.056766 0.920439
v 0.920439 5.056766 0.531416
vt 0.000000 0.005054
vt 0.000000 0.128764
vt 0.083333 0.128764
vt 0.083333 0.005054
vt 0.166667 0.128764
vt 0.166667 0.005054
vt 0.250000 0.128764
vt 0.250000 0.005054
vt 0.333333 0.128764
vt 0.333333 0.005054
vt 0.416667 0.128764
vt 0.416667 0.005054
vt 0.500000 0.128764
vt 0.500000 0.005054
vt 0.583333 0.128764
vt 0.583333 0.005054
vt 0.666667 0.128764
vt 0.666667 0.005054
vt 0.750000 0.128764
vt 0.750000 0.005054
vt 0.833333 0.128764
vt 0.833333 0.005054
vt 0.916667 0.128764
vt 0.916667 0.005054
vt 1.000000 0.128764
vt 1.000000 0.005054
vt 0.000000 0.391394
vt 0.083333 0.391394
vt 0.166667 0.391394
vt 0.250000 0.391394
vt 0.333333 0.391394
vt 0.416667 0.391394
vt 0.500000 0.391394
vt 0.583333 0.391394
vt 0.666667 0.391394
vt 0.750000 0.391394
vt 0.833333 0.391394
vt 0.916667 0.391394
vt 1.000000 0.391394
vt 0.000000 0.698318
vt 0.083333 0.698318
vt 0.166667 0.698318
vt 0.250000 0.698318
vt 0.333333 0.698318
vt 0.416667 0.698318
vt 0.500000 0.698318
vt 0.583333 0.698318
vt 0.666667 0.698318
vt 0.750000 0.698318
vt 0.833333 0.698318
vt 0.916667 0.698318
vt 1.000000 0.698318
vt 0.000000 0.918158
vt 0.083333 0.918158
vt 0.166667 0.918158
vt 0.250000 0.918158
vt 0.333333 0.918158
vt 0.416667 0.918158
vt 0.500000 0.918158
vt 0.583333 0.918158
vt 0.666667 0.918158
vt 0.750000 0.918158
vt 0.833333 0.918158
vt 0.916667 0.918158
vt 1.000000 0.918158
vt 0.000000 0.000000
vt 0.499716 0.997138
vt 0.083333 0.000000
vt 0.499861 0.996293
vt 0.166667 0.000000
vt 0.500281 0.996734
vt 0.250000 0.000000
vt 0.500331 0.997082
vt 0.333333 0.000000
vt 0.500327 0.996562
vt 0.416667 0.000000
vt 0.499989 0.997151
vt 0.500000 0.000000
vt 0.499916 0.996722
vt 0.583333 0.000000
vt 0.500064 0.997083
vt 0.666667 0.000000
vt 0.500031 0.996849
vt 0.750000 0.000000
vt 0.500148 0.996971
vt 0.833333 0.000000
vt 0.498847 0.996495
vt 0.916667 0.000000
vt 0.500097 0.996921
vn -0.257000 0.966400 0.000000
vn -0.772200 0.635300 -0.000000
vn -0.668800 0.635300 0.386100
vn -0.222600 0.966400 0.128500
vn -0.386100 0.635300 0.668800
vn -0.128500 0.966400 0.222600
vn -0.000000 0.635300 0.772200
vn -0.000000 0.966400 0.257000
vn 0.386100 0.635300 0.668800
vn 0.128500 0.966400 0.222600
vn 0.668800 0.635300 0.386100
vn 0.222600 0.966400 0.128500
vn 0.772200 0.635300 0.000000
vn 0.257000 0.966400 0.000000
vn 0.668800 0.635300 -0.386100
vn 0.222600 0.966400 -0.128500
vn 0.386100 0.635300 -0.668800
vn 0.128500 0.966400 -0.222600
vn 0.000000 0.635300 -0.772200
vn 0.000000 0.966400 -0.257000
vn -0.386100 0.635300 -0.668800
vn -0.128500 0.966400 -0.222600
vn -0.668800 0.635300 -0.386100
vn -0.222600 0.966400 -0.128500
vn -0.999800 0.020900 -0.000000
vn -0.865800 0.020900 0.499900
vn -0.499900 0.020900 0.865800
vn -0.000000 0.020900 0.999800
vn 0.499900 0.020800 0.865800
vn 0.865800 0.020900 0.499900
vn 0.999800 0.020900 0.000000
vn 0.865800 0.020900 -0.499900
vn 0.499900 0.020900 -0.865800
vn 0.000000 0.020900 -0.999800
vn -0.499900 0.020800 -0.865800
vn -0.865800 0.020900 -0.499900
vn -0.818100 -0.575000 0.000000
vn -0.708500 -0.575000 0.409100
vn -0.409100 -0.575000 0.708500
vn 0.000000 -0.575000 0.818100
vn 0.409100 -0.575000 0.708500
vn 0.708500 -0.575000 0.409100
vn 0.818100 -0.575000 -0.000000
vn 0.708500 -0.575000 -0.409100
vn 0.409100 -0.575000 -0.708500
vn -0.000000 -0.575000 -0.818100
vn -0.409100 -0.575000 -0.708500
vn -0.708500 -0.575000 -0.409100
vn -0.423100 -0.906100 -0.000000
vn -0.366400 -0.906100 0.211600
vn -0.211600 -0.906100 0.366400
vn -0.000000 -0.906100 0.423100
vn 0.211600 -0.906100 0.366400
vn 0.366400 -0.906100 0.211600
vn 0.423100 -0.906100 -0.000000
vn 0.366400 -0.906100 -0.211600
vn 0.211600 -0.906100 -0.366400
vn -0.000000 -0.906100 -0.423100
vn -0.211600 -0.906100 -0.366400
vn -0.366400 -0.906100 -0.211600
vn -0.000000 1.000000 0.000000
vn 0.000000 -1.000000 -0.000000
usemtl skydome2
s 1
f 3/1/1 15/2/2 16/3/3 4/4/4
f 4/4/4 16/3/3 17/5/5 5/6/6
f 5/6/6 17/5/5 18/7/7 6/8/8
f 6/8/8 18/7/7 19/9/9 7/10/10
f 7/10/10 19/9/9 20/11/11 8/12/12
f 8/12/12 20/11/11 21/13/13 9/14/14
f 9/14/14 21/13/13 22/15/15 10/16/16
f 10/16/16 22/15/15 23/17/17 11/18/18
f 11/18/18 23/17/17 24/19/19 12/20/20
f 12/20/20 24/19/19 25/21/21 13/22/22
f 13/22/22 25/21/21 26/23/23 14/24/24
f 14/24/24 26/23/23 15/25/2 3/26/1
f 15/2/2 27/27/25 28/28/26 16/3/3
f 16/3/3 28/28/26 29/29/27 17/5/5
f 17/5/5 29/29/27 30/30/28 18/7/7
f 18/7/7 30/30/28 31/31/29 19/9/9
f 19/9/9 31/31/29 32/32/30 20/11/11
f 20/11/11 32/32/30 33/33/31 21/13/13
f 21/13/13 33/33/31 34/34/32 22/15/15
f 22/15/15 34/34/32 35/35/33 23/17/17
f 23/17/17 35/35/33 36/36/34 24/19/19
f 24/19/19 36/36/34 37/37/35 25/21/21
f 25/21/21 37/37/35 38/38/36 26/23/23
f 26/23/23 38/38/36 27/39/25 15/25/2
f 27/27/25 39/40/37 40/41/38 28/28/26
f 28/28/26 40/41/38 41/42/39 29/29/27
f 29/29/27 41/42/39 42/43/40 30/30/28
f 30/30/28 42/43/40 43/44/41 31/31/29
f 31/31/29 43/44/41 44/45/42 32/32/30
f 32/32/30 44/45/42 45/46/43 33/33/31
f 33/33/31 45/46/43 46/47/44 34/34/32
f 34/34/32 46/47/44 47/48/45 35/35/33
f 35/35/33 47/48/45 48/49/46 36/36/34
f 36/36/34 48/49/46 49/50/47 37/37/35
f 37/37/35 49/50/47 50/51/48 38/38/36
f 38/38/36 50/51/48 39/52/37 27/39/25
f 39/40/37 51/53/49 52/54/50 40/41/38
f 40/41/38 52/54/50 53/55/51 41/42/39
f 41/42/39 53/55/51 54/56/52 42/43/40
f 42/43/40 54/56/52 55/57/53 43/44/41
f 43/44/41 55/57/53 56/58/54 44/45/42
f 44/45/42 56/58/54 57/59/55 45/46/43
f 45/46/43 57/59/55 58/60/56 46/47/44
f 46/47/44 58/60/56 59/61/57 47/48/45
f 47/48/45 59/61/57 60/62/58 48/49/46
f 48/49/46 60/62/58 61/63/59 49/50/47
f 49/50/47 61/63/59 62/64/60 50/51/48
f 50/51/48 62/64/60 51/65/49 39/52/37
f 1/66/61 3/1/1 4/4/4
f 52/54/50 51/53/49 2/67/62
f 1/68/61 4/4/4 5/6/6
f 53/55/51 52/54/50 2/69/62
f 1/70/61 5/6/6 6/8/8
f 54/56/52 53/55/51 2/71/62
f 1/72/61 6/8/8 7/10/10
f 55/57/53 54/56/52 2/73/62
f 1/74/61 7/10/10 8/12/12
f 56/58/54 55/57/53 2/75/62
f 1/76/61 8/12/12 9/14/14
f 57/59/55 56/58/54 2/77/62
f 1/78/61 9/14/14 10/16/16
f 58/60/56 57/59/55 2/79/62
f 1/80/61 10/16/16 11/18/18
f 59/61/57 58/60/56 2/81/62
f 1/82/61 11/18/18 12/20/20
f 60/62/58 59/61/57 2/83/62
f 1/84/61 12/20/20 13/22/22
f 61/63/59 60/62/58 2/85/62
f 1/86/61 13/22/22 14/24/24
f 62/64/60 61/63/59 2/87/62
f 1/88/61 14/24/24 3/26/1
f 51/65/49 62/64/60 2/89/62
